<svg width="39" height="36" viewBox="0 0 39 36" fill="none" xmlns="http://www.w3.org/2000/svg">
<g clip-path="url(#clip0_5_110)">
<path d="M19.5 3.24337C24.7067 3.24337 25.3233 3.26166 27.3795 3.34814C29.2808 3.4283 30.3134 3.7215 31.0006 3.96802C31.9107 4.29455 32.5603 4.68464 33.2426 5.3145C33.925 5.94436 34.3476 6.54398 34.7013 7.38408C34.9684 8.01844 35.286 8.97159 35.3728 10.7265C35.4665 12.6246 35.4863 13.1939 35.4863 18C35.4863 22.8061 35.4665 23.3755 35.3728 25.2735C35.286 27.0285 34.9684 27.9816 34.7013 28.6159C34.3476 29.456 33.925 30.0558 33.2426 30.6856C32.5603 31.3155 31.9107 31.7056 31.0006 32.032C30.3134 32.2785 29.2808 32.5718 27.3795 32.6519C25.3236 32.7385 24.707 32.7568 19.5 32.7568C14.293 32.7568 13.6762 32.7385 11.6203 32.6519C9.71907 32.5717 8.68664 32.2785 7.99942 32.032C7.08932 31.7056 6.43957 31.3155 5.75722 30.6856C5.07487 30.0556 4.65227 29.456 4.29868 28.6159C4.03162 27.9817 3.71384 27.0285 3.62715 25.2735C3.53331 23.3755 3.5135 22.8063 3.5135 18C3.5135 13.1937 3.53331 12.6246 3.62715 10.7266C3.71399 8.97159 4.03162 8.01844 4.29868 7.38408C4.65227 6.54398 5.07487 5.94436 5.75722 5.3145C6.43972 4.6845 7.08932 4.29455 7.99942 3.96802C8.68649 3.7215 9.71907 3.4283 11.6203 3.34814C13.6765 3.26166 14.2932 3.24337 19.5 3.24337ZM19.5 0C14.2041 0 13.54 0.0206719 11.4602 0.108281C9.38453 0.19575 7.96697 0.500062 6.72674 0.945C5.44431 1.40498 4.35688 2.0205 3.2728 3.02119C2.18872 4.02187 1.52207 5.02566 1.02375 6.2093C0.541582 7.35427 0.212062 8.66278 0.117305 10.5787C0.0223945 12.4985 0 13.1115 0 18C0 22.8885 0.0223945 23.5015 0.117305 25.4213C0.212062 27.3374 0.541582 28.6459 1.02375 29.7907C1.52191 30.9743 2.18872 31.9783 3.2728 32.979C4.35688 33.9796 5.44431 34.595 6.72674 35.055C7.96712 35.5001 9.38453 35.8042 11.4601 35.8917C13.54 35.9793 14.2041 36 19.5 36C24.7959 36 25.46 35.9793 27.5398 35.8917C29.6153 35.8042 31.0329 35.5001 32.2731 35.055C33.5555 34.5952 34.643 33.9796 35.727 32.979C36.8111 31.9783 37.4779 30.9745 37.9762 29.7907C38.4583 28.6457 38.7879 27.3374 38.8827 25.4215C38.9776 23.5015 39 22.8885 39 18C39 13.1115 38.9776 12.4985 38.8827 10.5787C38.7879 8.66278 38.4583 7.35427 37.9762 6.20944C37.4779 5.02566 36.8111 4.02187 35.727 3.02119C34.643 2.0205 33.5555 1.40484 32.2733 0.945C31.0329 0.500062 29.6153 0.19575 27.5398 0.108281C25.46 0.0206719 24.7959 0 19.5 0ZM19.5 8.75672C13.9696 8.75672 9.48645 12.8953 9.48645 18C9.48645 23.1047 13.9696 27.2433 19.5 27.2433C25.0302 27.2433 29.5136 23.105 29.5136 18C29.5136 12.8952 25.0302 8.75672 19.5 8.75672ZM19.5 24C15.9102 24 12.9999 21.3137 12.9999 18C12.9999 14.6863 15.9102 12 19.5 12C23.0898 12 26.0001 14.6863 26.0001 18C26.0001 21.3137 23.0898 24 19.5 24ZM32.249 8.39152C32.249 9.58458 31.2015 10.5515 29.909 10.5515C28.6166 10.5515 27.569 9.58458 27.569 8.39152C27.569 7.19845 28.6167 6.23152 29.909 6.23152C31.2014 6.23152 32.249 7.19859 32.249 8.39152Z" fill="#0A0A08"/>
</g>
<defs>
<clipPath id="clip0_5_110">
<rect width="39" height="36" fill="white"/>
</clipPath>
</defs>
</svg>
