<svg width="38" height="36" viewBox="0 0 38 36" fill="none" xmlns="http://www.w3.org/2000/svg">
<g clip-path="url(#clip0_5_95)">
<path d="M32.3775 30.674H26.7472V22.3205C26.7472 20.3285 26.7096 17.7642 23.8188 17.7642C20.8862 17.7642 20.4375 19.9346 20.4375 22.1755V30.6734H14.8073V13.4953H20.2123V15.8428H20.288C20.829 14.9666 21.6107 14.2458 22.5498 13.7572C23.4889 13.2685 24.5504 13.0303 25.6211 13.0679C31.3278 13.0679 32.3799 16.624 32.3799 21.2503L32.3775 30.674ZM8.45416 11.1472C6.64961 11.1475 5.18646 9.7618 5.18616 8.05222C5.18586 6.34264 6.64842 4.9565 8.45297 4.95622C10.2575 4.9558 11.7207 6.34152 11.721 8.05109C11.7211 8.87207 11.377 9.65948 10.7644 10.2401C10.1518 10.8207 9.32075 11.147 8.45416 11.1472ZM11.2694 30.6741H5.63311V13.4953H11.2693L11.2694 30.6741ZM35.1845 0.00242175H2.80389C1.2735 -0.0138908 0.018459 1.14753 -0.000244141 2.59737V33.4017C0.0178652 34.8522 1.27276 36.0148 2.80374 35.9996H35.1845C36.7187 36.0176 37.9785 34.8551 37.9998 33.4017V2.59498C37.9779 1.14233 36.718 -0.0189533 35.1845 3.11206e-05" fill="#0A66C2"/>
</g>
<defs>
<clipPath id="clip0_5_95">
<rect width="38" height="36" fill="white"/>
</clipPath>
</defs>
</svg>
