<svg width="38" height="37" viewBox="0 0 38 37" fill="none" xmlns="http://www.w3.org/2000/svg">
<path d="M0 18.4998C0 26.075 4.67843 32.5828 11.3731 35.444C11.3197 34.1522 11.3636 32.6015 11.7038 31.1959C12.0691 29.6941 14.1486 21.1154 14.1486 21.1154C14.1486 21.1154 13.5416 19.9342 13.5416 18.1885C13.5416 15.4469 15.1735 13.3994 17.2059 13.3994C18.9342 13.3994 19.7691 14.6633 19.7691 16.1768C19.7691 17.8683 18.661 20.3986 18.0912 22.7421C17.6152 24.7045 19.1018 26.3051 21.0901 26.3051C24.69 26.3051 27.1145 21.8032 27.1145 16.4693C27.1145 12.4148 24.3098 9.37997 19.2085 9.37997C13.445 9.37997 9.85443 13.5649 9.85443 18.2395C9.85443 19.8513 10.3425 20.9878 11.1069 21.868C11.4584 22.2722 11.5073 22.4348 11.3801 22.899C11.2889 23.2394 11.0796 24.0589 10.9929 24.3836C10.8665 24.8522 10.4765 25.0197 10.0416 24.8467C7.38696 23.7915 6.15063 20.9609 6.15063 17.779C6.15063 12.5239 10.7026 6.22248 19.7299 6.22248C26.9841 6.22248 31.7585 11.3335 31.7585 16.8199C31.7585 24.0771 27.6148 29.4987 21.5066 29.4987C19.4553 29.4987 17.5258 28.4191 16.8648 27.1928C16.8648 27.1928 15.7618 31.4552 15.5281 32.2783C15.1253 33.7046 14.3368 35.1302 13.6158 36.2414C15.3641 36.7447 17.1776 37.0002 19.0007 37C29.4928 37 38 28.7173 38 18.4998C38 8.28271 29.4928 0 19.0007 0C8.50751 0 0 8.28271 0 18.4998Z" fill="#CB1F27"/>
</svg>
