<svg width="41" height="38" viewBox="0 0 41 38" fill="none" xmlns="http://www.w3.org/2000/svg">
<g clip-path="url(#clip0_5_93)">
<path d="M41 4.62728C39.4647 5.39952 37.8362 5.90635 36.1687 6.13091C37.9056 4.9491 39.2392 3.07764 39.8672 0.847823C38.2161 1.96011 36.4096 2.74381 34.5258 3.1651C32.9914 1.30928 30.8054 0.14946 28.3859 0.14946C23.7404 0.14946 19.974 4.4251 19.974 9.69855C19.974 10.4471 20.0485 11.1758 20.1919 11.8749C13.201 11.4766 7.00299 7.67491 2.85414 1.89746C2.13024 3.30782 1.71543 4.94837 1.71543 6.69819C1.71543 10.0113 3.20056 12.934 5.45748 14.6466C4.12169 14.5991 2.81528 14.1896 1.64737 13.452C1.64694 13.492 1.64678 13.5321 1.64689 13.5722C1.64689 18.1989 4.54636 22.0585 8.39427 22.9358C7.15559 23.3182 5.85632 23.3742 4.59568 23.0995C5.66601 26.8933 8.77256 29.654 12.4533 29.7313C9.57446 32.2924 5.9474 33.8191 2.0066 33.8191C1.32754 33.8191 0.658082 33.7738 0 33.6856C3.72251 36.3951 8.14395 37.976 12.8942 37.976C28.3664 37.976 36.827 23.4249 36.827 10.806C36.827 10.3918 36.8189 9.98001 36.8026 9.57055C38.4493 8.21891 39.8706 6.545 41 4.62728Z" fill="#55ACEE"/>
</g>
<defs>
<clipPath id="clip0_5_93">
<rect width="41" height="38" fill="white"/>
</clipPath>
</defs>
</svg>
